<svg xmlns="http://www.w3.org/2000/svg" width="30.237" height="35.178" viewBox="0 0 30.237 35.178">
  <g id="Group_21" data-name="Group 21" transform="translate(-1815.763 -161)">
    <g id="Union_2" data-name="Union 2" transform="translate(-176.734 177)" fill="none">
      <path d="M1997.76,11.668a7.283,7.283,0,0,1-.331-2.168c0-5.247,5.665-9.5,12.652-9.5s12.652,4.253,12.652,9.5-5.665,9.5-12.652,9.5a15.959,15.959,0,0,1-6.208-1.22l-11.377,1.4Z" stroke="none"/>
      <path d="M 2010.081665039062 17.99990081787109 C 2013.245971679688 17.99990081787109 2016.2099609375 17.0828800201416 2018.427734375 15.41775989532471 C 2020.559692382812 13.81696033477783 2021.73388671875 11.7154598236084 2021.73388671875 9.500400543212891 C 2021.73388671875 7.284930229187012 2020.559692382812 5.183160305023193 2018.427612304688 3.582240343093872 C 2016.2099609375 1.917060256004333 2013.245971679688 1.000000238418579 2010.081665039062 1.000000238418579 C 2006.917236328125 1.000000238418579 2003.953247070312 1.917060256004333 2001.735595703125 3.58223032951355 C 1999.603637695312 5.183140277862549 1998.429443359375 7.284920215606689 1998.429443359375 9.500400543212891 C 1998.429443359375 10.13160037994385 1998.525634765625 10.76117038726807 1998.715454101562 11.37163066864014 L 1998.861206054688 11.84044075012207 L 1994.605712890625 17.91131782531738 L 2004.017456054688 16.75444030761719 L 2004.263793945312 16.85881996154785 C 2006.026123046875 17.60531997680664 2008.037963867188 17.99990081787109 2010.081665039062 17.99990081787109 M 1992.49658203125 19.1781005859375 L 1997.760498046875 11.66847038269043 C 1997.544067382812 10.9722204208374 1997.429443359375 10.2461404800415 1997.429443359375 9.500400543212891 C 1997.429443359375 4.253400325775146 2003.093994140625 2.929687639152689e-07 2010.081665039062 2.929687639152689e-07 C 2017.069213867188 2.929687639152689e-07 2022.73388671875 4.253400325775146 2022.73388671875 9.500400543212891 C 2022.73388671875 14.74650001525879 2017.069213867188 18.99990081787109 2010.081665039062 18.99990081787109 C 2007.825927734375 18.99990081787109 2005.707641601562 18.55641937255859 2003.873779296875 17.77962112426758 L 1992.49658203125 19.1781005859375 Z" stroke="none" fill="#fff"/>
    </g>
    <text id="_..." data-name="..." transform="translate(1825 188)" fill="#fff" font-size="25" font-family="SegoeUI-Semibold, Segoe UI" font-weight="600"><tspan x="0" y="0">...</tspan></text>
  </g>
</svg>
